PathFileType        4      (X/Y/Z)      C:\Users\pc\Desktop\IMUTRC\Sujet_05\Sujet_05_velo_80.trc         
DataRate	CameraRate	NumFrames	NumMarkers	Units	OrigDataRate	OrigDataStartFrame	OrigNumFrames
60.0	60.0	4	64	mm	60.0	124	990
Frame#	Time	pHipOrigin			pRightASI			pLeftASI			pRightCSI			pLeftCSI			pRightIschialTub			pLeftIschialTub			pSacrum			pL5SpinalProcess			pL3SpinalProcess			pT12SpinalProcess			pIJ			pT4SpinalProcess			pT8SpinalProcess			pPX			pC7SpinalProcess			pTopOfHead			pRightAuricularis			pLeftAuricularis			pBackOfHead			pRightAcromion			pLeftAcromion			pRightArmLatEpicondyle			pRightArmMedEpicondyle			pLeftArmLatEpicondyle			pLeftArmMedEpicondyle			pRightUlnarStyloid			pRightRadialStyloid			pRightOlecranon			pLeftUlnarStyloid			pLeftRadialStyloid			pLeftOlecranon			pRightTopOfHand			pRightPinky			pRightBallHand			pLeftTopOfHand			pLeftPinky			pLeftBallHand			pRightGreaterTrochanter			pRightKneeLatEpicondyle			pRightKneeMedEpicondyle			pRightPatella			pLeftGreaterTrochanter			pLeftKneeLatEpicondyle			pLeftKneeMedEpicondyle			pLeftPatella			pRightTibialTub			pRightLatMalleolus			pRightMedMalleolus			pLeftTibialTub			pLeftLatMalleolus			pLeftMedMalleolus			pRightHeelFoot			pRightFirstMetatarsal			pRightFifthMetatarsal			pRightPivotFoot			pRightHeelCenter			pRightToe			pLeftHeelFoot			pLeftFirstMetatarsal			pLeftFifthMetatarsal			pLeftPivotFoot			pLeftHeelCenter			pLeftToe			
		X1	Y1	Z1	X2	Y2	Z2	X3	Y3	Z3	X4	Y4	Z4	X5	Y5	Z5	X6	Y6	Z6	X7	Y7	Z7	X8	Y8	Z8	X9	Y9	Z9	X10	Y10	Z10	X11	Y11	Z11	X12	Y12	Z12	X13	Y13	Z13	X14	Y14	Z14	X15	Y15	Z15	X16	Y16	Z16	X17	Y17	Z17	X18	Y18	Z18	X19	Y19	Z19	X20	Y20	Z20	X21	Y21	Z21	X22	Y22	Z22	X23	Y23	Z23	X24	Y24	Z24	X25	Y25	Z25	X26	Y26	Z26	X27	Y27	Z27	X28	Y28	Z28	X29	Y29	Z29	X30	Y30	Z30	X31	Y31	Z31	X32	Y32	Z32	X33	Y33	Z33	X34	Y34	Z34	X35	Y35	Z35	X36	Y36	Z36	X37	Y37	Z37	X38	Y38	Z38	X39	Y39	Z39	X40	Y40	Z40	X41	Y41	Z41	X42	Y42	Z42	X43	Y43	Z43	X44	Y44	Z44	X45	Y45	Z45	X46	Y46	Z46	X47	Y47	Z47	X48	Y48	Z48	X49	Y49	Z49	X50	Y50	Z50	X51	Y51	Z51	X52	Y52	Z52	X53	Y53	Z53	X54	Y54	Z54	X55	Y55	Z55	X56	Y56	Z56	X57	Y57	Z57	X58	Y58	Z58	X59	Y59	Z59	X60	Y60	Z60	X61	Y61	Z61	X62	Y62	Z62	X63	Y63	Z63	X64	Y64	Z64	
124	2.05	0.0	1249.99512	7.654012613289058E-14	66.02107000000001	1346.27344	120.15951000000008	55.993289999999995	1340.30314	-129.4917299999999	22.779880000000006	1407.59943	99.35041000000008	14.433049999999993	1402.61452	-108.27687999999992	-49.09557	1197.59561	55.23976000000007	-53.26898	1195.10315	-48.57388999999993	-62.60119	1268.94937	2.0867100000000818	-28.05461	1369.51703	-2.2026299999999144	28.80814	1475.53331	-2.7822799999999117	88.3952	1568.21786	-1.7389199999999094	349.17555	1595.17115	7.883110000000077	236.78322	1701.94096	4.63713000000009	161.42993	1649.07773	0.9274300000000911	249.30346	1518.71654	2.898200000000078	286.86417	1735.32826	8.057010000000089	567.64212	1775.09162	-10.317599999999928	474.66775	1739.90743	71.64359000000007	458.55374	1748.89186	-73.61436999999991	450.38081	1799.3206	4.173410000000082	275.79304	1657.42456	201.6569900000001	290.16812	1666.93066	-190.70177999999993	354.04453	1408.35296	182.58681000000007	339.95926	1404.99104	127.11520000000007	382.50488	1426.78553	-174.64573999999993	357.98608	1416.23607	-123.86920999999994	458.7856	1193.76998	177.77580000000006	500.69362	1220.0277	184.38370000000006	323.49746	1399.02074	153.43089000000006	485.97075	1211.27513	-176.73243999999994	527.06727	1238.46027	-184.73147999999995	347.37866	1413.56972	-146.82297999999994	509.67805	1135.74795	343.61099	483.47829	1131.34268	261.47591	487.76763	1173.71441	202.75831000000005	603.75373	1161.07824	-317.93291	545.96356	1152.78938	-254.34632999999997	523.99517	1192.78459	-198.00525999999994	28.51832000000001	1227.91081	147.57652000000007	331.14872	1033.26747	109.08838000000004	334.33674	1041.90412	39.18371000000004	352.07375	1071.92951	76.86035000000004	-1.5650300000000088	1210.46363	-146.4172399999999	240.60885	941.74221	-136.33148999999997	261.99759	956.05934	-70.71615999999996	277.76381	975.70916	-115.52238999999996	354.39231	990.66388	70.71616000000003	92.56862	719.56594	77.67185000000005	94.77125	722.52211	18.084790000000037	300.71758	921.51275	-113.84142999999996	234.52262	551.23829	-137.54873	246.86897	550.079	-79.17891999999999	3.7097000000000033	697.65552	53.50083000000004	104.50921	573.38056	7.825150000000029	109.55209	572.80092	86.07664000000003	121.08694	555.93338	44.86419000000003	30.720960000000005	669.36906	51.53006000000004	172.26921	493.56404	41.03856000000002	187.16598	474.49386	-107.05962999999998	346.79902	447.25075	-68.51352999999999	346.74105	445.91757	-146.93891	368.65147	442.67159	-106.65388	226.11783	470.43638	-107.00166999999999	448.17817	428.41243	-106.47999	
125	2.067	0.0	1249.99512	7.654012613289058E-14	65.26754000000001	1347.20087	119.81173000000008	56.92070999999999	1339.25979	-129.8395099999999	22.200240000000008	1408.35296	98.30706000000009	15.186589999999994	1401.74505	-109.37819999999992	-49.50131	1198.00136	55.35568000000007	-52.97916	1194.75537	-48.51591999999993	-62.60119	1268.94937	1.5070700000000814	-27.99664	1369.45907	-3.188019999999914	28.86611	1475.53331	-3.709699999999912	88.3952	1568.21786	-2.3185599999999096	349.11758	1595.28708	8.926470000000077	236.66729	1701.99893	5.390660000000089	161.37197	1649.1357	0.9853900000000911	249.30346	1518.77451	2.956170000000078	286.69028	1735.44419	9.21629000000009	567.64212	1775.09162	-7.361439999999926	474.14608	1739.84946	73.96215000000007	458.90153	1749.06575	-71.35376999999991	450.26488	1799.37856	6.4919800000000825	274.63375	1657.13474	202.3525600000001	291.26944	1667.62623	-189.94824999999992	353.23303	1408.17907	182.76071000000005	339.20573	1404.87511	127.23113000000006	382.56285	1426.90146	-174.81962999999993	357.87016	1416.17811	-124.15902999999994	457.91614	1193.48016	177.19616000000005	499.82416	1219.73788	183.74610000000007	322.68597	1398.84685	153.54682000000005	485.27518	1210.98531	-177.42800999999994	526.42966	1238.05453	-185.31112999999993	347.32069	1413.68565	-147.11279999999994	509.15637	1135.11034	342.74153	482.84069	1130.87896	260.66441	486.95613	1173.36663	202.06274000000005	602.82631	1161.02028	-318.86034	545.09409	1152.55753	-255.21578999999997	523.24164	1192.4368	-198.75878999999995	29.27185000000001	1230.75105	147.80837000000008	341.64022	1051.87394	110.76933000000005	344.2486	1059.81502	40.80670000000004	360.47854	1091.23154	78.07760000000005	-3.245990000000009	1209.24638	-146.18537999999992	222.2922	926.49766	-134.47663999999995	244.5504	939.94533	-69.03519999999996	261.41795	958.31993	-113.89938999999995	364.47806	1009.15442	72.04934000000003	104.10347	736.66534	78.36742000000004	106.24814	739.7954	18.83832000000004	283.38633	905.86245	-112.56621999999996	218.69843	535.4141	-138.07040999999998	231.21867	534.02296	-79.75855999999999	15.824190000000003	712.49432	54.71808000000004	119.57987	590.65385	8.868500000000028	124.97053	590.422	87.11999000000003	136.73724	573.72834	45.907540000000026	43.53101	684.84546	52.689340000000044	189.48454	512.75014	42.02395000000001	169.77675	459.65506	-107.11759999999998	328.71423	429.22392	-68.28166999999999	328.71423	427.36907	-146.70706	350.50872	423.89123	-106.3061	208.61268	454.72811	-107.00166999999999	429.62967	407.95111	-105.95832	
126	2.083	0.0	1249.99512	7.654012613289058E-14	64.62994000000002	1348.01236	119.52191000000009	57.616279999999996	1338.33236	-130.12932999999992	21.678560000000008	1408.99056	97.32167000000008	15.882149999999992	1400.99152	-110.36358999999992	-49.79113	1198.4071	55.41365000000007	-52.7473	1194.40758	-48.39999999999993	-62.60119	1269.00734	1.0433500000000815	-27.99664	1369.45907	-4.057479999999915	28.86611	1475.47535	-4.5211999999999115	88.3952	1568.21786	-2.8981999999999095	349.00165	1595.51893	9.680000000000076	236.43543	1702.11485	5.97030000000009	161.25604	1649.1357	0.9853900000000911	249.30346	1518.9484	2.956170000000078	286.45842	1735.56012	10.14371000000009	567.52619	1775.14958	-4.753049999999926	473.50847	1739.84946	75.93293000000007	459.13338	1749.29761	-69.44094999999992	450.09099	1799.55245	8.404790000000082	273.53244	1657.01881	202.8162700000001	292.19687	1668.3218	-189.3686099999999	352.36357	1408.00517	182.93460000000005	338.33626	1404.75919	127.40502000000006	382.56285	1427.07535	-175.05148999999994	357.81219	1416.29404	-124.44884999999994	456.93075	1193.19034	176.50059000000005	498.89673	1219.3901	183.05053000000007	321.75854	1398.73092	153.77867000000006	484.40572	1210.75345	-178.06561999999994	525.67613	1237.64878	-185.89076999999995	347.26273	1413.91751	-147.34465999999995	508.57673	1134.47274	341.87207	482.08715	1130.35729	259.85292	486.02871	1173.01884	201.30921000000006	601.78295	1160.90435	-319.7298	544.16667	1152.4416	-256.08525	522.37218	1192.14698	-199.45435999999995	30.14132000000001	1233.70722	147.98227000000009	351.37818	1071.00208	112.04454000000004	353.23303	1078.0737	41.96599000000004	367.9559	1110.8234	78.71520000000004	-4.753050000000009	1208.49285	-146.0694499999999	204.5552	913.57167	-133.43327999999994	227.50897	925.91802	-67.93388999999996	245.41986	943.24928	-112.85603999999995	374.15806	1028.2246	72.91880000000003	117.78299	752.08378	79.17892000000003	119.6958	755.38773	19.649820000000037	265.99711	892.29886	-111.81268999999996	200.61364	522.08236	-139.11375999999998	213.36573	520.34344	-80.85986999999999	30.315210000000004	724.84067	56.051250000000046	137.95448	606.59397	9.969820000000029	143.80885	606.7099	88.16335000000002	155.86538	590.30607	46.950900000000026	58.94946	698.1772	53.96455000000004	210.69939	531.18272	42.95137000000002	149.77915	447.6565	-107.52334999999998	307.90513	413.22584	-68.68741999999999	307.73124	410.79135	-147.1128	329.52573	407.02368	-106.71184999999998	188.49915	441.74416	-107.46537999999998	408.18297	388.9389	-106.36406	
127	2.1	0.0	1249.99512	7.654012613289058E-14	64.22419000000001	1348.64997	119.17412000000009	58.13795999999999	1337.57883	-130.41914999999992	21.388740000000006	1409.5702	96.45221000000008	16.287899999999993	1400.35392	-111.17507999999991	-50.02299	1198.75489	55.529580000000074	-52.57341	1194.11776	-48.28406999999993	-62.60119	1269.00734	0.6955700000000816	-27.93868	1369.4011	-4.753049999999915	28.92407	1475.47535	-5.2167699999999115	88.3952	1568.21786	-3.3619199999999094	348.94369	1595.5769	10.143710000000077	236.37747	1702.11485	6.31808000000009	161.19807	1649.1357	0.9274300000000911	249.36142	1519.00636	2.782280000000078	286.28453	1735.67605	10.781320000000088	567.52619	1775.09162	-2.724309999999926	473.04476	1739.7915	77.43999000000007	459.4232	1749.4715	-67.99184999999991	450.03302	1799.55245	9.911860000000082	272.7789	1656.84492	203.10609000000008	292.89244	1668.95941	-188.96285999999992	351.668	1407.71535	182.87663000000006	337.75662	1404.52733	127.34706000000007	382.56285	1427.19128	-175.39926999999994	357.69626	1416.40996	-124.85459999999995	456.17721	1192.84255	175.74705000000006	498.1432	1218.98435	182.29699000000005	321.12094	1398.49907	153.77867000000006	483.71015	1210.57956	-178.76118999999994	525.03853	1237.35896	-186.52836999999994	347.20477	1414.0914	-147.75040999999993	508.17098	1133.77717	340.88668	481.56548	1129.83561	258.86753	485.3911	1172.61309	200.43975000000006	600.91349	1160.78842	-320.59926	543.29721	1152.26771	-256.95471	521.61865	1191.91513	-200.20788999999994	31.01078000000001	1236.43153	148.0402300000001	359.72501	1089.37669	112.33436000000005	360.94225	1095.69478	42.19784000000004	374.21602	1129.54579	78.48335000000004	-6.202160000000009	1208.02914	-146.01148999999992	188.96286	903.54389	-133.02753999999993	212.55424	914.90485	-67.64406999999996	231.21867	931.30868	-112.56621999999996	383.25842	1046.71514	73.09269000000005	133.37532	764.60402	79.93245000000003	134.99831	768.0239	20.345390000000037	250.69459	880.9379	-111.63878999999996	181.60142	511.5329	-140.33100999999996	194.52741	509.38823	-82.13507999999999	47.00886	734.34678	57.094610000000046	158.82155	620.15756	10.665390000000029	164.90777	620.50535	88.85892000000003	177.48598	604.56523	47.588500000000025	76.6285	708.78462	54.891970000000036	234.46465	547.47062	43.41509000000002	128.79616	438.73003	-108.21890999999998	285.93675	399.95207	-69.38298999999999	285.47303	396.9959	-147.75041	307.20956	392.88045	-107.40741999999999	167.2843	431.65841	-108.16094999999999	385.34512	372.4771	-107.05963	
